<svg xmlns="http://www.w3.org/2000/svg" xmlns:xlink="http://www.w3.org/1999/xlink" width="500" zoomAndPan="magnify" viewBox="0 0 375 374.999991" height="500" preserveAspectRatio="xMidYMid meet" version="1.0"><path fill="#4A6363" d="M 183.78125 13.335938 C 181.105469 14.039062 179.667969 15.039062 170.441406 22.636719 C 161.09375 30.328125 151.746094 38.015625 142.394531 45.703125 C 132.273438 54.023438 122.15625 62.34375 112.042969 70.65625 C 107.328125 74.539062 102.609375 78.417969 97.886719 82.296875 C 94.589844 85 93.925781 85.546875 50.023438 121.636719 C 4.285156 159.234375 6.429688 157.453125 5.191406 158.871094 C 3.890625 160.351562 2.796875 162.496094 2.257812 164.601562 C 1.675781 166.867188 1.886719 170.648438 2.710938 172.796875 C 4.207031 176.683594 7.554688 179.96875 11.316406 181.226562 C 15.367188 182.585938 20.382812 181.890625 23.78125 179.503906 C 24.492188 179.003906 42.777344 164.03125 64.417969 146.230469 C 86.058594 128.425781 106.195312 111.867188 109.164062 109.425781 C 112.132812 106.984375 130.957031 91.503906 150.992188 75.027344 C 183.746094 48.09375 187.464844 45.105469 187.820312 45.414062 C 188.039062 45.605469 194.050781 50.546875 201.175781 56.402344 C 208.300781 62.253906 220.230469 72.058594 227.6875 78.191406 C 235.144531 84.324219 249.070312 95.777344 258.636719 103.644531 C 268.203125 111.511719 289.472656 129.003906 305.902344 142.519531 C 322.332031 156.03125 339.226562 169.929688 343.449219 173.398438 C 348.246094 177.34375 351.667969 179.980469 352.566406 180.421875 C 357.796875 183 364.164062 182.160156 368.28125 178.34375 C 371.367188 175.488281 372.886719 172.003906 372.878906 167.828125 C 372.871094 165.003906 372.363281 163.101562 371 160.800781 C 369.761719 158.71875 368.914062 157.894531 362.878906 152.933594 C 295.730469 97.738281 248.363281 58.796875 227.808594 41.890625 C 218.1875 33.980469 208.574219 26.078125 198.964844 18.175781 C 195.21875 15.097656 193.585938 14.070312 191.433594 13.429688 C 189.515625 12.855469 185.773438 12.8125 183.78125 13.335938 M 185 79.660156 C 183.289062 80.019531 181.601562 80.640625 180.414062 81.339844 C 179.808594 81.695312 168.304688 91.039062 154.855469 102.101562 C 132.746094 120.28125 110.640625 138.453125 88.53125 156.625 C 65.503906 175.550781 46.175781 191.507812 45.574219 192.089844 C 44.265625 193.355469 43.109375 195.203125 42.257812 197.398438 L 41.625 199.015625 L 41.558594 264.394531 C 41.511719 310.773438 41.566406 330.226562 41.75 331.332031 C 42.164062 333.796875 43.6875 336.683594 45.5625 338.550781 C 47.371094 340.351562 48.699219 341.195312 51.167969 342.097656 L 52.902344 342.730469 L 71.429688 342.800781 L 89.957031 342.875 L 93.265625 341.574219 C 95.082031 340.855469 99 339.1875 101.96875 337.867188 C 109.054688 334.707031 108.863281 334.789062 111.996094 333.710938 C 117.269531 331.898438 118.335938 331.757812 127.917969 331.597656 C 132.625 331.519531 136.542969 331.386719 136.621094 331.308594 C 136.703125 331.230469 136.601562 330.070312 136.402344 328.730469 C 135.707031 324.109375 136.027344 321.261719 137.613281 317.964844 C 138.628906 315.851562 140.390625 313.984375 142.464844 312.820312 C 143.8125 312.0625 144.054688 311.808594 144.675781 310.492188 C 145.0625 309.679688 146.394531 307.480469 147.640625 305.601562 C 148.890625 303.71875 150.519531 300.933594 151.261719 299.402344 C 152.050781 297.785156 153.363281 295.636719 154.398438 294.265625 C 155.378906 292.964844 156.285156 291.574219 156.417969 291.164062 C 156.921875 289.597656 160.542969 266.476562 160.878906 262.679688 L 161.039062 260.84375 L 158.914062 260.664062 C 154.695312 260.308594 149.800781 261.265625 146.03125 263.175781 L 143.832031 264.289062 L 143.621094 265.839844 C 143.355469 267.808594 143.742188 270.605469 144.34375 271.046875 C 144.578125 271.214844 145.375 271.351562 146.125 271.351562 C 148.394531 271.351562 149.554688 272.449219 150.300781 275.304688 C 150.796875 277.21875 150.769531 278.667969 150.191406 280.542969 C 149.128906 283.976562 146.339844 286.953125 142.355469 288.90625 C 140.589844 289.769531 139.695312 290.078125 139.117188 290.023438 L 138.316406 289.945312 L 138.394531 288.511719 C 138.527344 286.105469 138.277344 285.242188 136.769531 282.894531 C 135.082031 280.257812 134.453125 278.253906 134.6875 276.257812 C 134.871094 274.691406 135.246094 273.878906 136.195312 273 C 137.378906 271.898438 138.421875 271.5 139.976562 271.558594 C 140.917969 271.589844 141.460938 271.503906 141.59375 271.300781 C 141.867188 270.863281 141.84375 266.613281 141.5625 266.4375 C 141.050781 266.125 139.59375 267.261719 136.113281 270.695312 C 134.109375 272.667969 131.363281 275.21875 130.007812 276.359375 C 128.652344 277.503906 127.339844 278.78125 127.09375 279.203125 C 126.546875 280.140625 126.320312 282.113281 126.550781 283.945312 C 126.714844 285.28125 126.738281 285.3125 127.359375 285.164062 C 128.664062 284.855469 130.027344 284.734375 130.59375 284.875 C 132.253906 285.292969 133.636719 288.1875 133.636719 291.253906 C 133.636719 296.953125 129.957031 302.539062 124.308594 305.410156 C 123.433594 305.855469 123.207031 305.890625 122.941406 305.621094 C 122.6875 305.371094 122.675781 305.082031 122.878906 304.289062 C 123.285156 302.691406 122.949219 301.359375 121.585938 299.144531 C 119.023438 294.988281 118.6875 294.207031 118.570312 292.203125 C 118.476562 290.605469 118.542969 290.179688 119.0625 289.046875 C 119.820312 287.394531 120.878906 286.578125 122.929688 286.074219 C 124.226562 285.753906 124.554688 285.574219 124.667969 285.132812 C 124.789062 284.644531 124.425781 281.496094 124.222656 281.292969 C 124.179688 281.25 122.367188 282.101562 120.195312 283.1875 C 116.109375 285.226562 111.527344 287.039062 108.515625 287.796875 C 106.792969 288.234375 106.785156 288.238281 106.277344 289.421875 C 105.777344 290.582031 105.769531 292.027344 106.261719 292.332031 C 106.371094 292.398438 107.066406 292.242188 107.804688 291.980469 C 109.4375 291.40625 110.066406 291.390625 111.308594 291.886719 C 112.902344 292.527344 114.292969 294.816406 114.582031 297.285156 C 115.03125 301.140625 112.5 306.074219 108.605469 308.941406 C 106.605469 310.414062 106.046875 310.304688 106.046875 308.4375 C 106.046875 307.339844 105.207031 306.214844 103.398438 304.875 C 100.640625 302.835938 99.617188 301.703125 99.183594 300.21875 C 98.738281 298.679688 98.867188 297.316406 99.574219 296.179688 C 100.125 295.28125 101.964844 294.230469 103.359375 294.003906 L 104.367188 293.84375 L 104.367188 292.6875 C 104.367188 291.59375 103.984375 290.308594 103.660156 290.308594 C 103.007812 290.308594 99.621094 293.539062 98.378906 295.34375 C 95.867188 299.007812 94.035156 304.335938 93.960938 308.195312 C 93.933594 309.671875 94.015625 310.019531 94.585938 310.886719 C 94.949219 311.433594 95.457031 311.996094 95.71875 312.136719 C 96.136719 312.359375 96.242188 312.285156 96.527344 311.597656 C 97.355469 309.617188 99.496094 308.472656 101.359375 309.019531 C 104.613281 309.972656 106.710938 312.53125 107.632812 316.679688 C 108.304688 319.683594 107.617188 324.855469 106.546875 324.855469 C 106.304688 324.855469 105.964844 324.6875 105.792969 324.480469 C 105.046875 323.582031 103.582031 323.085938 101.96875 323.179688 C 97.660156 323.429688 96.304688 323.1875 94.832031 321.894531 C 92.8125 320.121094 92.808594 317.464844 94.820312 315.34375 L 95.535156 314.589844 L 94.613281 313.742188 C 94.105469 313.277344 93.660156 312.929688 93.621094 312.96875 C 93.582031 313.003906 93.441406 314.023438 93.308594 315.230469 C 93.042969 317.617188 92.453125 319.582031 91.546875 321.132812 C 90.980469 322.097656 89.289062 323.824219 88.445312 324.296875 C 88.058594 324.511719 88.097656 324.644531 88.886719 325.832031 C 90.933594 328.929688 90.835938 331.722656 88.625 333.410156 C 87.851562 334 87.507812 334.085938 85.535156 334.171875 C 83.390625 334.265625 83.246094 334.238281 81.304688 333.371094 C 80.199219 332.878906 78.324219 331.902344 77.136719 331.203125 C 74.277344 329.523438 72.851562 329.070312 70.945312 329.25 C 70.125 329.324219 69.199219 329.464844 68.878906 329.558594 C 68.316406 329.726562 68.304688 329.703125 68.449219 328.671875 C 68.65625 327.164062 69.867188 324.371094 71.144531 322.445312 C 72.671875 320.148438 74.78125 318.316406 77.402344 317.015625 C 79.328125 316.058594 79.824219 315.914062 81.597656 315.808594 C 84.179688 315.648438 85.488281 315.996094 86.636719 317.148438 C 87.46875 317.980469 88.292969 319.917969 88.292969 321.046875 C 88.292969 322.417969 89.933594 321.015625 90.570312 319.097656 C 91.195312 317.222656 91.648438 313.914062 91.648438 311.253906 C 91.648438 309.90625 91.761719 308.28125 91.902344 307.636719 C 92.21875 306.15625 91.910156 305.160156 91.191406 305.347656 C 90.25 305.59375 90.089844 306.070312 90.53125 307.296875 C 91.382812 309.671875 90.78125 311.644531 88.863281 312.769531 C 87.464844 313.589844 85.648438 313.617188 83.363281 312.855469 C 81.277344 312.164062 79.78125 312.148438 78.445312 312.808594 C 77.121094 313.464844 77.023438 313.324219 77.023438 310.820312 C 77.023438 305.832031 79.148438 302.046875 82.964844 300.242188 C 84.710938 299.414062 86.542969 299.339844 87.503906 300.054688 C 88.390625 300.710938 89.195312 301.921875 89.5 303.058594 C 89.636719 303.566406 89.890625 303.984375 90.0625 303.984375 C 90.238281 303.984375 90.839844 303.671875 91.402344 303.296875 C 92.328125 302.671875 92.488281 302.410156 93.089844 300.546875 C 94.238281 296.976562 95.847656 294.484375 99.25 291.019531 L 101.492188 288.734375 L 98.597656 288.316406 L 95.699219 287.894531 L 93.855469 289.542969 C 88.878906 293.984375 83.277344 296.546875 78.535156 296.546875 C 77.535156 296.546875 77.425781 296.628906 74.765625 299.359375 L 72.027344 302.175781 L 72.59375 302.847656 C 74.855469 305.535156 71.75 308.660156 66.820312 308.660156 C 65.097656 308.660156 64.707031 308.570312 63.023438 307.765625 C 61.734375 307.152344 60.738281 306.449219 59.84375 305.535156 C 58.464844 304.125 58.277344 303.742188 58.960938 303.742188 C 59.867188 303.738281 61.796875 302.328125 63.097656 300.71875 C 64.816406 298.601562 66.402344 297.503906 67.75 297.503906 C 68.957031 297.503906 70.257812 298.316406 71.015625 299.539062 L 71.542969 300.390625 L 72.660156 299.449219 C 74.046875 298.277344 75.699219 296.582031 75.558594 296.472656 C 75.503906 296.429688 74.785156 296.195312 73.964844 295.953125 C 72.085938 295.402344 69.546875 294.007812 68.101562 292.730469 C 67.488281 292.191406 66.882812 291.746094 66.757812 291.746094 C 66.632812 291.746094 66.335938 292.183594 66.09375 292.714844 C 65.589844 293.835938 64.105469 295.265625 63.21875 295.488281 C 61.75 295.855469 60.117188 294.996094 59.15625 293.351562 C 58.832031 292.796875 58.226562 291.050781 57.8125 289.46875 C 56.945312 286.175781 56.886719 286.042969 55.722656 284.753906 C 54.953125 283.902344 54.902344 283.765625 55.230469 283.4375 C 55.929688 282.738281 59.46875 281.878906 61.691406 281.863281 C 63.945312 281.851562 65.371094 282.210938 67.726562 283.390625 C 70.675781 284.863281 70.886719 287.484375 68.242188 289.730469 L 67.367188 290.46875 L 68.53125 291.320312 C 70.238281 292.5625 72.472656 293.621094 74.316406 294.054688 C 76.230469 294.511719 79.339844 294.554688 80.855469 294.148438 C 82.113281 293.8125 84.453125 292.746094 84.453125 292.507812 C 84.449219 292.292969 83.054688 291.507812 82.675781 291.507812 C 82.511719 291.507812 82.125 291.773438 81.820312 292.101562 C 80.464844 293.542969 78.039062 293.769531 76.296875 292.617188 C 75.148438 291.855469 74.023438 289.640625 73.644531 287.398438 C 73.324219 285.492188 72.753906 284.480469 71.753906 284.039062 C 70.15625 283.335938 71.308594 282.535156 74.761719 281.945312 C 77.546875 281.472656 79.363281 281.734375 82.398438 283.042969 C 84.667969 284.019531 85.445312 284.640625 86.15625 286.035156 C 86.925781 287.542969 86.773438 288.53125 85.589844 289.714844 L 84.566406 290.738281 L 85.371094 291.171875 C 86.171875 291.605469 86.1875 291.601562 87.421875 290.953125 C 88.109375 290.597656 89.457031 289.507812 90.417969 288.539062 L 92.171875 286.777344 L 90.292969 285.695312 C 89.109375 285.019531 87.925781 284.355469 86.734375 283.699219 C 84.515625 282.484375 80.972656 279.039062 77.957031 275.160156 C 75.558594 272.078125 74.078125 270.613281 72.414062 269.679688 L 71.488281 269.15625 L 71.53125 270.933594 C 71.570312 272.351562 71.46875 272.9375 71.039062 273.832031 C 69.664062 276.667969 66.929688 276.753906 63.921875 274.054688 C 63.515625 273.691406 62.246094 272.027344 61.105469 270.359375 C 58.765625 266.949219 57.804688 265.984375 56.324219 265.566406 C 54.382812 265.015625 54.386719 264.839844 56.390625 262.878906 C 59.179688 260.148438 62.167969 258.886719 65.867188 258.878906 C 69.335938 258.875 71.65625 259.875 72.832031 261.878906 C 73.578125 263.152344 73.578125 264.398438 72.835938 265.992188 L 72.257812 267.230469 L 72.777344 267.6875 C 73.0625 267.9375 73.761719 268.4375 74.332031 268.800781 C 75.3125 269.425781 79.171875 273.214844 79.175781 273.554688 C 79.175781 273.792969 84.65625 278.652344 86.019531 279.625 C 86.675781 280.089844 87.347656 280.46875 87.511719 280.46875 C 87.910156 280.46875 87.910156 278.804688 87.511719 278.691406 C 84.65625 277.871094 83.699219 276.917969 83.542969 274.734375 C 83.417969 273.035156 84.007812 271.539062 85.710938 269.238281 C 87.367188 267 87.648438 266.382812 87.695312 264.875 C 87.75 263.257812 88.117188 263.097656 89.566406 264.058594 C 93.347656 266.558594 95.488281 270.175781 95.488281 274.0625 C 95.488281 278.328125 93.339844 280.679688 90.695312 279.300781 L 89.71875 278.792969 L 89.449219 279.390625 C 89.136719 280.074219 89.492188 281.636719 90.097656 282.242188 C 90.558594 282.703125 93.925781 283.996094 96.148438 284.566406 C 102.011719 286.0625 109.164062 285.285156 114.300781 282.582031 L 115 282.214844 L 112.660156 281.4375 C 110.148438 280.597656 110.136719 280.601562 109.429688 281.929688 C 108.066406 284.5 105.136719 284.417969 102.53125 281.738281 C 101.328125 280.5 99.539062 277 99.078125 274.972656 C 98.6875 273.269531 98.6875 269.652344 99.074219 267.996094 C 99.394531 266.632812 100.9375 263.183594 101.585938 262.378906 C 102.042969 261.816406 102.5625 262.15625 102.761719 263.148438 C 102.835938 263.511719 103.328125 264.304688 103.859375 264.910156 C 104.628906 265.777344 105.238281 266.167969 106.816406 266.785156 C 110.648438 268.285156 113.273438 270.207031 114.050781 272.074219 C 114.953125 274.246094 114.761719 276.269531 113.484375 278.03125 C 113.089844 278.578125 112.765625 279.085938 112.765625 279.160156 C 112.765625 279.234375 113.332031 279.558594 114.023438 279.878906 C 116.167969 280.878906 117.796875 280.652344 119.960938 279.0625 C 123.40625 276.53125 129.085938 271.332031 129.074219 270.71875 C 129.074219 270.605469 128.558594 270.230469 127.9375 269.882812 C 127.3125 269.535156 125.941406 268.632812 124.890625 267.878906 C 123.6875 267.011719 122.878906 266.578125 122.710938 266.707031 C 120.390625 268.507812 118.886719 268.941406 116.953125 268.363281 C 114.214844 267.550781 112.539062 265.082031 111.765625 260.722656 C 111.179688 257.429688 110.382812 255.695312 108.996094 254.6875 C 107.730469 253.765625 107.699219 253.277344 108.875 252.808594 C 111.683594 251.683594 116.101562 251.652344 119.414062 252.730469 C 123.761719 254.152344 127.308594 257.546875 128.09375 261.046875 C 128.398438 262.40625 128.113281 263.066406 126.628906 264.441406 C 125.425781 265.554688 125.414062 265.578125 125.800781 266.167969 C 126.324219 266.964844 128.148438 268.199219 129.644531 268.769531 L 130.855469 269.230469 L 132.667969 267.234375 C 140.660156 258.410156 145.046875 255.535156 152.40625 254.300781 C 153.863281 254.054688 155.101562 253.804688 155.160156 253.75 C 155.21875 253.691406 154.824219 252.945312 154.285156 252.09375 C 151.34375 247.433594 149.027344 240.898438 148.164062 234.820312 C 148.011719 233.753906 147.921875 233.632812 146.757812 232.964844 C 146.074219 232.574219 144.953125 232.128906 144.273438 231.976562 C 143.0625 231.703125 143.003906 231.714844 142 232.457031 C 140.96875 233.214844 139.636719 234.929688 139.636719 235.496094 C 139.636719 235.855469 140.175781 236.085938 141.035156 236.085938 C 142 236.085938 143.21875 236.949219 143.621094 237.914062 C 144.144531 239.164062 144.09375 242.140625 143.519531 243.773438 C 142.707031 246.097656 142.011719 247.195312 140.234375 248.972656 C 138.339844 250.871094 136.320312 252.007812 133.503906 252.773438 C 131.625 253.28125 131.320312 253.078125 131.890625 251.707031 C 132.496094 250.261719 132.355469 248.90625 131.289062 245.800781 C 130.007812 242.089844 129.890625 241.277344 130.375 239.609375 C 130.8125 238.109375 131.65625 236.972656 132.761719 236.402344 C 133.523438 236.007812 135.515625 235.886719 136.441406 236.179688 C 136.886719 236.324219 137.082031 236.136719 137.84375 234.835938 C 138.328125 234.003906 139.085938 232.878906 139.53125 232.335938 L 140.339844 231.34375 L 138.96875 231.078125 C 136.664062 230.628906 133.1875 230.335938 130.113281 230.332031 L 127.1875 230.328125 L 125.71875 231.683594 C 124.492188 232.820312 123.558594 234.03125 123.558594 234.484375 C 123.558594 234.542969 124.160156 234.882812 124.890625 235.238281 C 126.371094 235.964844 126.789062 236.46875 127.113281 237.90625 C 127.367188 239.054688 126.882812 240.925781 125.878906 242.640625 C 124.546875 244.90625 120.957031 247.394531 118.042969 248.0625 C 115.660156 248.609375 111.417969 248.207031 110.511719 247.351562 C 110.394531 247.238281 110.613281 246.859375 111.019531 246.476562 C 112.535156 245.054688 112.617188 244.761719 112.761719 240.304688 C 112.914062 235.632812 113.085938 235.050781 114.804688 233.46875 C 116.40625 231.992188 118.691406 231.824219 120.316406 233.0625 C 120.761719 233.40625 121.222656 233.683594 121.339844 233.683594 C 121.722656 233.683594 123.558594 231.40625 123.558594 230.933594 C 123.558594 230.863281 122.722656 230.804688 121.699219 230.800781 C 117.871094 230.792969 114.347656 230.222656 109.890625 228.890625 C 107.804688 228.265625 106.695312 228.402344 104.234375 229.585938 C 101.875 230.714844 100.875 231.578125 100.4375 232.867188 C 99.949219 234.300781 99.949219 234.898438 100.429688 235.90625 L 100.808594 236.707031 L 102.1875 236.253906 C 104.066406 235.640625 105.1875 235.9375 106.46875 237.398438 C 108.707031 239.9375 109.03125 244.585938 107.226562 248.265625 C 106.460938 249.832031 103.386719 253.234375 102.890625 253.066406 C 102.746094 253.019531 102.414062 252.40625 102.152344 251.707031 C 101.628906 250.308594 100.546875 249.105469 98.128906 247.234375 C 96.015625 245.601562 95.007812 243.925781 95.007812 242.035156 C 95.007812 240.777344 95.09375 240.554688 95.863281 239.699219 C 96.335938 239.175781 97.210938 238.566406 97.808594 238.335938 C 98.890625 237.921875 98.898438 237.910156 98.773438 236.972656 C 98.507812 234.984375 97.882812 235.15625 96.1875 237.691406 C 95.5 238.71875 94.476562 240.0625 93.914062 240.671875 C 93.097656 241.554688 92.859375 242.019531 92.738281 242.953125 C 92.605469 243.992188 91.839844 247.5 91.503906 248.621094 C 91.421875 248.890625 91.535156 249.097656 91.8125 249.195312 C 93.523438 249.800781 94.265625 251.191406 93.800781 252.917969 C 93.417969 254.339844 90.785156 257.003906 88.804688 257.976562 C 87.253906 258.738281 87.136719 258.757812 84.058594 258.757812 C 81.28125 258.757812 80.84375 258.703125 80.394531 258.296875 L 79.882812 257.835938 L 80.449219 257.214844 C 81.691406 255.863281 81.976562 255.179688 82.246094 252.902344 C 82.414062 251.492188 82.722656 250.238281 83.066406 249.558594 C 84.222656 247.253906 86.496094 246.320312 88.480469 247.335938 C 89.027344 247.613281 89.527344 247.839844 89.59375 247.839844 C 90.011719 247.839844 91.148438 244.140625 90.832031 243.820312 C 90.773438 243.765625 89.878906 244.265625 88.839844 244.933594 C 86.71875 246.292969 85.707031 246.757812 83.597656 247.347656 C 82.375 247.6875 81.761719 248.082031 79.734375 249.847656 L 77.320312 251.945312 L 77.765625 252.820312 C 78.625 254.5 78.109375 255.890625 76.300781 256.78125 C 73.304688 258.257812 68.835938 256.753906 66.488281 253.480469 C 65.492188 252.097656 65.523438 251.773438 66.6875 251.589844 C 67.445312 251.46875 68.066406 251.035156 69.808594 249.410156 C 71.347656 247.972656 72.21875 247.335938 72.796875 247.230469 C 74.316406 246.945312 75.71875 247.734375 76.410156 249.265625 C 76.652344 249.800781 76.996094 250.238281 77.175781 250.238281 C 77.546875 250.238281 79.65625 248.375 79.65625 248.050781 C 79.65625 247.933594 79.40625 247.839844 79.105469 247.839844 C 78.359375 247.839844 75.910156 247.207031 74.734375 246.710938 C 74.207031 246.484375 73.113281 245.839844 72.304688 245.273438 C 71.496094 244.707031 70.742188 244.242188 70.625 244.242188 C 70.507812 244.242188 70.222656 244.769531 69.992188 245.417969 C 69.398438 247.085938 68.207031 248.082031 66.800781 248.082031 C 65.824219 248.082031 65.601562 247.964844 64.5625 246.929688 C 63.417969 245.785156 63.253906 245.449219 61.535156 240.761719 C 61.101562 239.582031 60.53125 238.867188 59.164062 237.816406 C 58.507812 237.308594 58.492188 237.253906 58.875 236.832031 C 59.507812 236.132812 62.484375 234.863281 64.171875 234.574219 C 68.191406 233.886719 72.457031 236.109375 72.859375 239.105469 C 72.964844 239.902344 72.851562 240.242188 72.097656 241.359375 L 71.210938 242.675781 L 71.964844 243.304688 C 73.71875 244.769531 77.015625 245.921875 79.453125 245.921875 C 81.503906 245.921875 83.164062 245.496094 85.183594 244.453125 C 86.765625 243.636719 89.292969 241.535156 88.996094 241.285156 C 88.9375 241.234375 88.28125 240.917969 87.535156 240.582031 L 86.175781 239.96875 L 85.421875 240.90625 C 84.074219 242.585938 82.390625 243.082031 80.648438 242.308594 C 78.621094 241.414062 77.652344 240.097656 76.546875 236.738281 C 75.972656 234.992188 74.613281 233.058594 73.578125 232.503906 C 72.75 232.066406 72.769531 231.730469 73.652344 231.207031 C 76.925781 229.273438 81.625 229.164062 85.3125 230.929688 C 89.570312 232.972656 90.984375 236.417969 88.394531 238.453125 C 87.640625 239.050781 87.78125 239.34375 89 239.707031 C 90.554688 240.175781 90.996094 239.902344 92.636719 237.460938 C 95.171875 233.6875 98.777344 229.589844 101.449219 227.441406 C 102.019531 226.984375 102.507812 226.398438 102.527344 226.144531 C 102.554688 225.832031 101.898438 225.132812 100.507812 223.988281 C 99.4375 223.105469 98.367188 222.21875 97.296875 221.335938 C 96.359375 220.554688 95.964844 220.382812 95.15625 220.390625 C 93.175781 220.40625 87.652344 220.976562 85.695312 221.367188 L 83.683594 221.765625 L 83.859375 222.625 C 84.324219 224.867188 83.707031 226.503906 82.039062 227.433594 C 81.164062 227.921875 80.660156 228.023438 79.058594 228.019531 C 75.527344 228.015625 72.03125 226.453125 69.8125 223.890625 C 68.179688 222.003906 66.378906 217.828125 66.765625 216.820312 C 66.886719 216.507812 67.0625 216.480469 67.703125 216.664062 C 69.367188 217.140625 70.878906 216.945312 72.496094 216.046875 C 74.6875 214.828125 76.429688 214.039062 77.613281 213.722656 C 79.691406 213.164062 82.421875 214.316406 83.359375 216.144531 C 83.535156 216.488281 83.753906 217.445312 83.847656 218.269531 L 84.019531 219.769531 L 85.617188 219.757812 C 86.492188 219.753906 88.023438 219.648438 89.011719 219.523438 C 90.230469 219.375 91.449219 219.246094 92.671875 219.136719 C 94.085938 219.015625 94.53125 218.894531 94.53125 218.621094 C 94.53125 218.425781 93.804688 217.046875 92.917969 215.5625 C 91.351562 212.933594 91.265625 212.839844 89.976562 212.324219 C 89.25 212.03125 87.757812 211.324219 86.664062 210.75 C 84.785156 209.769531 84.652344 209.734375 84.261719 210.121094 C 82.492188 211.878906 81.324219 212.054688 79.507812 210.832031 C 76.617188 208.886719 74.925781 204.570312 75.554688 200.726562 C 75.867188 198.824219 77.054688 196.015625 77.550781 196.015625 C 77.726562 196.015625 78.070312 196.351562 78.308594 196.757812 C 78.878906 197.722656 80.511719 198.746094 82.503906 199.382812 C 84.675781 200.078125 86.019531 200.90625 86.855469 202.058594 C 88.171875 203.875 88.085938 205.546875 86.59375 207.167969 L 85.667969 208.171875 L 86.464844 208.945312 C 87.484375 209.933594 90.054688 211.035156 90.167969 210.527344 C 90.210938 210.339844 89.996094 209.023438 89.6875 207.601562 C 89.246094 205.527344 89.132812 204.277344 89.136719 201.296875 C 89.136719 199.25 89.214844 196.960938 89.3125 196.210938 L 89.492188 194.84375 L 87.871094 194.871094 C 86.980469 194.886719 85.84375 194.761719 85.347656 194.597656 C 84.136719 194.195312 83.253906 192.898438 83.253906 191.515625 C 83.253906 189.484375 84.328125 187.941406 87.8125 184.96875 C 90.257812 182.886719 91.164062 181.6875 91.171875 180.542969 C 91.175781 180.144531 91.277344 179.664062 91.398438 179.472656 C 91.738281 178.941406 92.671875 179.523438 94.648438 181.5 C 96.441406 183.292969 97.394531 184.933594 98.007812 187.292969 C 98.675781 189.859375 98.433594 191.707031 97.167969 193.703125 C 96.140625 195.320312 94.949219 195.820312 92.902344 195.480469 C 92.078125 195.34375 91.320312 195.308594 91.226562 195.402344 C 90.867188 195.757812 90.890625 200.597656 91.261719 202.941406 C 91.84375 206.605469 93.199219 210.566406 94.144531 211.351562 C 94.457031 211.613281 94.621094 211.488281 95.242188 210.507812 C 95.640625 209.875 95.96875 209.242188 95.96875 209.101562 C 95.96875 208.957031 95.589844 208.636719 95.125 208.386719 C 93.882812 207.71875 93.25 206.546875 93.25 204.921875 C 93.25 204.179688 93.390625 203.308594 93.5625 202.988281 C 94.171875 201.851562 96.09375 200.046875 97.679688 199.117188 C 99.539062 198.03125 100.933594 196.527344 101.152344 195.378906 C 101.34375 194.347656 101.757812 194.367188 102.644531 195.441406 C 104.304688 197.457031 105.566406 200.964844 105.566406 203.5625 C 105.566406 207.058594 103.394531 211.128906 101.324219 211.515625 C 100.296875 211.710938 99.625 211.527344 98.480469 210.753906 L 97.550781 210.121094 L 96.894531 210.851562 C 96.257812 211.566406 95.734375 212.929688 95.730469 213.875 C 95.726562 215.457031 99.355469 219.519531 102.84375 221.839844 C 105.269531 223.453125 108.640625 224.902344 109.097656 224.527344 C 109.5 224.191406 109.503906 221.828125 109.105469 221.511719 C 108.941406 221.378906 108.253906 221.144531 107.582031 220.984375 C 104.15625 220.183594 102.679688 216.621094 104.339844 213.171875 C 104.722656 212.378906 105.910156 210.617188 106.980469 209.253906 C 108.242188 207.648438 108.933594 206.550781 108.949219 206.136719 C 109.015625 204.378906 109.203125 203.082031 109.417969 202.863281 C 110.167969 202.113281 114.910156 206.253906 116.441406 208.996094 C 118.109375 211.992188 118.71875 216.058594 117.902344 218.804688 C 116.910156 222.148438 114.992188 223.472656 112.644531 222.433594 C 112.015625 222.15625 111.421875 221.929688 111.320312 221.929688 C 110.921875 221.929688 110.859375 222.746094 111.144531 224.234375 L 111.4375 225.789062 L 112.644531 226.136719 C 115.515625 226.972656 117.628906 227.207031 122.261719 227.207031 C 124.824219 227.207031 126.917969 227.117188 126.917969 227.011719 C 126.917969 226.902344 126.746094 226.300781 126.53125 225.675781 C 126.226562 224.78125 126.058594 224.574219 125.753906 224.707031 C 121.304688 226.621094 118.347656 224.363281 119.683594 220.078125 C 119.933594 219.261719 120.839844 217.539062 121.71875 216.195312 C 123.996094 212.722656 124.085938 212.511719 124.066406 210.621094 L 124.050781 208.96875 L 124.707031 209.109375 C 128.316406 209.910156 131.3125 212.367188 133.011719 215.929688 C 133.652344 217.273438 133.757812 217.757812 133.757812 219.410156 C 133.757812 222.65625 132.757812 223.78125 129.5 224.207031 C 128.527344 224.335938 128.359375 224.4375 128.359375 224.886719 C 128.359375 225.179688 128.640625 225.832031 128.984375 226.335938 L 129.609375 227.257812 L 132.761719 227.078125 C 134.496094 226.980469 137.546875 226.902344 139.542969 226.898438 L 143.167969 226.898438 L 143 226.148438 C 142.839844 225.449219 142.34375 224.328125 142.191406 224.328125 C 142.15625 224.328125 141.660156 224.554688 141.089844 224.828125 C 139.074219 225.800781 137.105469 224.636719 136.074219 221.863281 C 134.621094 217.953125 135.433594 213.625 138.320312 209.953125 C 139.425781 208.542969 141.003906 207.222656 141.335938 207.425781 C 141.433594 207.488281 141.585938 207.996094 141.679688 208.554688 C 141.941406 210.15625 142.96875 211.820312 144.320312 212.816406 C 146.75 214.613281 148.074219 216.707031 148.105469 218.808594 C 148.128906 220.371094 147.464844 221.390625 145.742188 222.433594 C 144.957031 222.910156 144.28125 223.472656 144.238281 223.6875 C 144.125 224.257812 145.390625 226.9375 145.964844 227.339844 C 146.660156 227.828125 147.730469 227.785156 147.878906 227.265625 C 147.945312 227.035156 148.226562 225.636719 148.503906 224.152344 C 149.839844 216.988281 152.328125 211.402344 156.664062 205.832031 C 157.722656 204.472656 158.589844 203.25 158.589844 203.117188 C 158.589844 202.988281 157.367188 201.632812 155.875 200.109375 C 154.382812 198.582031 152.949219 197.058594 152.695312 196.71875 C 152.132812 195.976562 150.617188 195.652344 149.511719 196.039062 L 148.769531 196.296875 L 149.480469 197.632812 C 151.085938 200.640625 149.929688 202.8125 145.976562 204.199219 C 141.484375 205.78125 136.65625 204.484375 132.847656 200.675781 C 130.371094 198.199219 130.15625 197.238281 132.078125 197.214844 C 133.328125 197.199219 134.699219 196.382812 135.933594 194.914062 C 139.089844 191.171875 141.070312 189.78125 143.234375 189.785156 C 145.414062 189.792969 147.074219 191.046875 147.625 193.097656 C 147.945312 194.300781 148.179688 194.453125 149.355469 194.234375 C 150.382812 194.039062 150.417969 193.683594 149.558594 191.964844 C 147.695312 188.21875 142.9375 185.285156 137.429688 184.480469 C 134.707031 184.082031 130.941406 184.332031 128.121094 185.101562 C 125.4375 185.832031 124.964844 186.109375 124.140625 187.410156 C 123.453125 188.5 123.515625 189.058594 124.332031 189.066406 C 125.109375 189.070312 126.707031 189.855469 127.316406 190.527344 C 128.460938 191.785156 128.601562 194.496094 127.636719 196.675781 C 127.027344 198.058594 124.953125 200.199219 123.273438 201.183594 C 121.121094 202.445312 117.148438 203.515625 116.421875 203.027344 C 116.183594 202.867188 116.203125 202.585938 116.511719 201.683594 C 116.984375 200.296875 116.84375 199.226562 115.980469 197.582031 C 113.835938 193.492188 113.980469 190.808594 116.433594 189.21875 C 117.566406 188.484375 118.804688 188.390625 120.117188 188.941406 C 120.59375 189.136719 121.019531 189.300781 121.066406 189.300781 C 121.113281 189.300781 121.371094 188.867188 121.640625 188.339844 C 122.242188 187.160156 122.234375 187.160156 119.066406 188 C 117.261719 188.476562 116.363281 188.589844 115.164062 188.5 C 113.367188 188.359375 111.105469 187.585938 110.480469 186.894531 C 109.9375 186.296875 109.714844 186.296875 109.527344 186.898438 C 109.441406 187.160156 108.949219 187.914062 108.425781 188.574219 C 105.800781 191.894531 101.648438 191.476562 100.355469 187.761719 C 99.871094 186.363281 99.785156 182.566406 100.140625 178.128906 C 100.386719 175.0625 100.210938 174.238281 98.914062 172.414062 C 98.335938 171.597656 98.167969 171.1875 98.367188 171.066406 C 98.914062 170.730469 102.195312 170.597656 104.109375 170.835938 C 108.039062 171.328125 110.84375 172.671875 113.382812 175.269531 C 115.398438 177.339844 116.515625 180.261719 116.027344 182.203125 C 115.824219 183.027344 114.546875 184.441406 113.304688 185.234375 C 112.382812 185.816406 112.320312 185.914062 112.679688 186.210938 C 112.960938 186.441406 113.761719 186.535156 115.378906 186.523438 C 117.5625 186.507812 117.929688 186.425781 122.480469 184.898438 C 125.121094 184.015625 127.734375 183.117188 128.289062 182.90625 L 129.304688 182.523438 L 128.320312 181.171875 C 127.777344 180.429688 126.480469 178.527344 125.4375 176.941406 C 124.394531 175.359375 123.445312 174.03125 123.328125 173.988281 C 123.210938 173.949219 122.667969 174.242188 122.117188 174.636719 C 119.691406 176.398438 116.347656 175.578125 115.304688 172.964844 C 114.730469 171.535156 114.585938 169.476562 114.914062 167.515625 C 115.285156 165.324219 115.082031 164.152344 114.082031 162.699219 C 113.644531 162.066406 113.359375 161.433594 113.445312 161.296875 C 113.929688 160.539062 119.546875 160.242188 121.847656 160.855469 C 124.851562 161.65625 127.644531 163.664062 128.726562 165.804688 C 129.507812 167.347656 129.722656 169.25 129.242188 170.394531 C 128.835938 171.371094 127.28125 172.625 126.1875 172.867188 C 125.796875 172.953125 125.480469 173.125 125.480469 173.25 C 125.480469 174.089844 128.421875 178.671875 130.476562 181.035156 L 131.355469 182.046875 L 133.15625 181.933594 C 135.605469 181.773438 139.117188 182.378906 142.609375 183.566406 C 144.875 184.335938 145.503906 184.46875 145.664062 184.21875 C 145.921875 183.816406 145.957031 184.152344 145.289062 180.5625 C 144.925781 178.628906 144.546875 177.265625 144.273438 176.933594 C 141.28125 173.28125 140.417969 172.144531 139.589844 170.761719 C 139.054688 169.867188 138.523438 169.078125 138.410156 169.007812 C 138.296875 168.9375 137.742188 169.144531 137.179688 169.464844 C 135.8125 170.246094 135 170.40625 133.921875 170.117188 C 132.066406 169.617188 130.046875 166.511719 129.53125 163.359375 C 128.882812 159.425781 130.445312 154.082031 133.222656 150.730469 C 134.566406 149.105469 137.25 146.8125 137.714844 146.894531 C 137.960938 146.941406 138.128906 147.40625 138.25 148.394531 C 138.566406 151 138.996094 151.71875 142.015625 154.726562 C 145.296875 157.996094 145.828125 158.914062 146.078125 161.765625 L 146.25 163.746094 L 147.53125 161.226562 C 149.160156 158.015625 150.921875 155.308594 152.792969 153.136719 C 153.605469 152.191406 154.269531 151.316406 154.269531 151.195312 C 154.269531 151.070312 153.941406 150.832031 153.542969 150.667969 C 151.335938 149.753906 149.730469 147.640625 150.046875 146.0625 C 150.546875 143.558594 153.550781 142.050781 158.75 141.691406 C 161.683594 141.488281 163.085938 141.039062 164.410156 139.875 C 165.007812 139.347656 165.5625 138.914062 165.636719 138.914062 C 166.210938 138.914062 167.226562 143.023438 167.226562 145.332031 C 167.226562 147.988281 165.9375 151.386719 164.203125 153.304688 C 163.082031 154.546875 161.203125 155.46875 159.800781 155.46875 C 158.210938 155.46875 157.375 154.875 155.777344 152.609375 C 155.625 152.390625 154.234375 153.941406 153.226562 155.449219 C 151.683594 157.757812 150.257812 160.730469 149.324219 163.582031 C 148.511719 166.054688 147.980469 169.625 148.425781 169.625 C 148.871094 169.625 151.390625 167.898438 151.390625 167.59375 C 151.390625 167.421875 151.230469 166.972656 151.03125 166.59375 C 150.835938 166.214844 150.675781 165.445312 150.671875 164.878906 C 150.671875 162.761719 151.746094 161.433594 154.207031 160.503906 C 155.472656 160.027344 155.855469 159.996094 158.761719 160.148438 L 161.933594 160.316406 L 163.488281 159.449219 C 164.984375 158.613281 165.054688 158.597656 165.296875 159.046875 C 165.980469 160.324219 165.292969 164.707031 163.996094 167.359375 C 162.386719 170.648438 158.660156 173.316406 155.65625 173.335938 C 154.4375 173.34375 154.195312 173.261719 153.550781 172.617188 C 153.066406 172.132812 152.761719 171.527344 152.640625 170.816406 C 152.484375 169.890625 152.375 169.734375 151.824219 169.671875 C 150.789062 169.550781 148.472656 171.226562 148.019531 172.421875 C 147.722656 173.203125 147.734375 175.601562 148.046875 177.542969 C 148.625 181.140625 151.527344 187.878906 153.539062 190.285156 C 154.359375 191.265625 154.609375 191.121094 155.804688 189.003906 L 156.613281 187.574219 L 155.339844 186.335938 C 154.273438 185.296875 154.046875 184.921875 153.902344 183.960938 C 153.664062 182.328125 153.945312 180.890625 154.753906 179.613281 C 155.890625 177.820312 157.835938 176.773438 162.546875 175.410156 C 164.574219 174.824219 166.058594 173.78125 166.894531 172.359375 C 167.882812 170.671875 168.296875 170.917969 169.367188 173.855469 C 171.054688 178.484375 170.773438 182.824219 168.503906 187.179688 C 166.671875 190.6875 163.074219 192.984375 160.65625 192.1875 C 159.871094 191.929688 158.53125 190.6875 158.304688 190.003906 C 158.148438 189.535156 157.011719 190.390625 156.601562 191.292969 C 155.773438 193.101562 155.789062 193.148438 157.972656 195.308594 C 159.695312 197.011719 162.441406 199.136719 162.921875 199.136719 C 163.003906 199.136719 164.246094 198.417969 165.6875 197.542969 C 169.035156 195.511719 172.410156 193.832031 174.542969 193.136719 C 177.84375 192.066406 178.742188 191.671875 178.742188 191.289062 C 178.742188 191.082031 177.988281 190.121094 177.070312 189.152344 C 175.449219 187.445312 173.78125 184.71875 174.070312 184.25 C 174.148438 184.125 174.691406 184.019531 175.28125 184.019531 C 176.90625 184.019531 178.179688 183.265625 180.503906 180.917969 C 183.632812 177.757812 185.703125 176.957031 187.859375 178.066406 C 189.210938 178.761719 190.019531 180.210938 190.019531 181.945312 L 190.019531 183.125 L 190.917969 182.976562 C 191.414062 182.894531 192.117188 182.824219 192.484375 182.824219 C 193.792969 182.820312 193.546875 182.164062 191.417969 179.980469 C 190.300781 178.839844 188.886719 177.292969 188.269531 176.550781 C 187.636719 175.785156 186.875 175.128906 186.515625 175.039062 C 186.164062 174.953125 184.679688 174.34375 183.214844 173.6875 L 180.546875 172.492188 L 179.773438 173.425781 C 179.34375 173.941406 178.683594 174.492188 178.296875 174.648438 C 175.976562 175.609375 172.578125 172.285156 171.414062 167.914062 C 170.730469 165.355469 171.097656 161.34375 172.214844 159.082031 C 172.78125 157.9375 173.101562 157.925781 173.796875 159.023438 C 174.542969 160.207031 175.554688 160.835938 177.527344 161.347656 C 180.597656 162.136719 182.496094 163.5625 183.082031 165.519531 C 183.34375 166.394531 183.308594 166.554688 182.613281 167.773438 C 181.617188 169.511719 181.585938 170.835938 182.523438 171.5 C 183.082031 171.898438 185.417969 172.746094 185.957031 172.746094 C 186.050781 172.746094 185.710938 171.683594 185.203125 170.386719 C 184.011719 167.355469 183.542969 165.523438 183.542969 163.925781 C 183.542969 162.757812 183.414062 162.464844 182.109375 160.535156 C 181.320312 159.375 180.167969 157.464844 179.550781 156.289062 C 178.929688 155.113281 178.40625 154.121094 178.378906 154.085938 C 178.355469 154.054688 177.820312 154.253906 177.183594 154.535156 C 175.019531 155.492188 173.328125 154.835938 172.324219 152.644531 C 171.269531 150.339844 171.589844 146.945312 173.160156 143.84375 C 174.34375 141.496094 179.058594 137.476562 180.621094 137.476562 C 181.082031 137.476562 181.121094 137.605469 181.097656 138.980469 C 181.070312 140.75 181.289062 141.246094 183.300781 143.914062 C 185.078125 146.273438 185.460938 147.152344 185.460938 148.875 C 185.460938 151.277344 184.128906 153.007812 181.859375 153.550781 C 180.453125 153.886719 180.242188 154.199219 180.667969 155.292969 C 181.125 156.464844 183.355469 159.835938 183.53125 159.621094 C 183.613281 159.515625 183.882812 158.835938 184.125 158.109375 C 184.824219 156.023438 186.550781 152.824219 187.839844 151.222656 L 189.023438 149.753906 L 188.367188 149.484375 C 186.851562 148.855469 185.699219 147.175781 185.699219 145.597656 C 185.699219 144.480469 186.574219 142.847656 187.457031 142.304688 C 188.359375 141.75 190.144531 141.21875 192.75 140.722656 C 195.09375 140.28125 196.5625 139.585938 197.40625 138.527344 C 197.765625 138.082031 198.183594 137.714844 198.339844 137.714844 C 198.757812 137.714844 199.613281 140.199219 199.917969 142.308594 C 200.476562 146.128906 199.316406 149.824219 196.851562 152.074219 C 195.464844 153.339844 194.5625 153.691406 193.363281 153.429688 C 192.636719 153.269531 191.109375 151.949219 190.585938 151.03125 C 190.328125 150.578125 190.261719 150.609375 189.308594 151.628906 C 187.179688 153.917969 185.699219 158.195312 185.699219 162.066406 C 185.699219 165.664062 187.101562 170.027344 188.765625 171.617188 L 189.46875 172.289062 L 190.464844 170.617188 C 191.011719 169.695312 191.457031 168.839844 191.457031 168.710938 C 191.457031 168.585938 191.179688 168.296875 190.839844 168.074219 C 190.496094 167.851562 190.015625 167.21875 189.765625 166.667969 C 188.871094 164.699219 189.289062 162.546875 190.914062 160.738281 C 192.144531 159.367188 193.523438 158.773438 197.078125 158.082031 C 199.738281 157.5625 200.691406 157.082031 201.785156 155.695312 C 203.015625 154.144531 203.402344 154.421875 203.960938 157.269531 C 204.492188 159.988281 204.351562 163.398438 203.613281 165.667969 C 202.90625 167.855469 201.671875 170.039062 200.378906 171.394531 C 198.609375 173.253906 195.257812 174.273438 193.941406 173.351562 C 193.664062 173.15625 193.203125 172.5 192.914062 171.886719 C 192.410156 170.8125 192.375 170.789062 191.929688 171.191406 C 191.675781 171.421875 191.246094 172.199219 190.976562 172.921875 L 190.488281 174.234375 L 192.59375 176.515625 C 198.769531 183.210938 201.164062 186.972656 202.519531 192.09375 L 203.035156 194.046875 L 205.570312 195.429688 C 206.96875 196.191406 208.945312 197.382812 209.964844 198.078125 L 211.820312 199.34375 L 213.214844 198.378906 C 214.726562 197.335938 218.8125 193.421875 218.808594 193.023438 C 218.804688 192.308594 218.234375 190.902344 217.683594 190.25 L 217.058594 189.503906 L 215.714844 190.835938 C 214.113281 192.421875 213.40625 192.625 211.472656 192.0625 C 208.765625 191.277344 205.863281 187.507812 204.796875 183.386719 C 204.277344 181.375 204.308594 177.867188 204.867188 175.714844 C 205.433594 173.523438 206.453125 171.304688 206.882812 171.304688 C 207.070312 171.304688 207.546875 171.832031 207.949219 172.472656 C 208.964844 174.109375 210.433594 175.039062 213.101562 175.734375 C 218.070312 177.027344 220.03125 178.519531 220.851562 181.628906 C 221.378906 183.625 221.074219 184.617188 219.382812 186.425781 L 218.339844 187.539062 L 218.945312 188.71875 C 219.28125 189.367188 219.746094 190.152344 219.984375 190.464844 L 220.410156 191.03125 L 221.53125 189.625 C 223.035156 187.742188 224.617188 184.628906 225.664062 181.507812 C 226.578125 178.773438 227.386719 173.976562 227.117188 172.898438 C 226.808594 171.667969 223.617188 169.144531 222.78125 169.46875 C 222.613281 169.53125 222.40625 170.027344 222.320312 170.574219 C 222.214844 171.214844 221.875 171.875 221.34375 172.453125 C 220.550781 173.3125 220.46875 173.34375 218.957031 173.324219 C 215.070312 173.269531 211.25 169.683594 209.8125 164.746094 C 209.351562 163.160156 209.238281 159.1875 209.640625 158.785156 C 209.828125 158.597656 210.214844 158.730469 211.03125 159.273438 C 212.484375 160.234375 213.289062 160.371094 216.402344 160.179688 C 219.703125 159.980469 221.035156 160.339844 222.679688 161.878906 C 224.257812 163.355469 224.542969 164.398438 223.898438 166.292969 L 223.425781 167.675781 L 223.9375 168.144531 C 224.382812 168.554688 226.289062 169.625 226.570312 169.625 C 226.9375 169.625 226.855469 168.289062 226.371094 166.371094 C 225.332031 162.285156 223.238281 157.753906 220.816406 154.359375 C 219.277344 152.199219 219.234375 152.179688 218.441406 153.324219 C 217.597656 154.542969 216.058594 155.46875 214.878906 155.46875 C 213.007812 155.46875 210.164062 153.269531 208.960938 150.890625 C 207.90625 148.800781 207.433594 146.035156 207.738281 143.769531 C 208.03125 141.625 208.75 139.109375 209.105469 138.992188 C 209.242188 138.945312 209.777344 139.296875 210.296875 139.773438 C 211.765625 141.117188 212.378906 141.328125 215.949219 141.683594 C 221.195312 142.210938 223.386719 143.089844 224.335938 145.046875 C 225.402344 147.25 224.472656 149.046875 221.507812 150.53125 L 220.25 151.160156 L 221.945312 153.125 C 226.660156 158.578125 228.890625 163.503906 229.964844 170.824219 C 230.1875 172.34375 230.410156 173.625 230.453125 173.671875 C 230.878906 174.105469 233.453125 170.867188 234.460938 168.625 C 234.917969 167.613281 234.769531 167.464844 233.296875 167.464844 C 231.625 167.464844 230.027344 166.351562 229.101562 164.539062 C 228.695312 163.738281 228.617188 163.230469 228.691406 161.851562 C 228.832031 159.195312 229.566406 157.890625 232.71875 154.695312 C 235.714844 151.648438 236.382812 150.535156 236.523438 148.332031 C 236.648438 146.386719 236.980469 146.375 239.164062 148.253906 C 242.160156 150.835938 244.125 153.945312 244.964844 157.449219 C 246.277344 162.925781 244.753906 168.136719 241.328125 169.882812 C 240.101562 170.507812 239.558594 170.46875 237.960938 169.625 L 236.597656 168.910156 L 236.09375 169.566406 C 235.816406 169.929688 235.0625 171.035156 234.417969 172.023438 C 233.769531 173.015625 232.539062 174.605469 231.675781 175.558594 C 230.523438 176.835938 230.070312 177.53125 229.964844 178.199219 C 229.882812 178.695312 229.609375 180.105469 229.351562 181.328125 C 228.859375 183.683594 228.769531 184.742188 229.066406 184.738281 C 229.164062 184.738281 230.230469 184.367188 231.429688 183.914062 C 235.253906 182.472656 237.335938 182.035156 240.394531 182.03125 L 243.144531 182.027344 L 244.367188 180.804688 C 245.808594 179.363281 247.84375 176.53125 248.8125 174.632812 L 249.5 173.28125 L 248.011719 172.542969 C 245.367188 171.230469 244.558594 169.03125 245.757812 166.417969 C 247.445312 162.734375 251.496094 160.445312 256.351562 160.4375 C 258.757812 160.433594 261.515625 161.066406 261.515625 161.621094 C 261.515625 161.800781 261.414062 161.949219 261.285156 161.949219 C 261.160156 161.949219 260.773438 162.429688 260.429688 163.015625 C 259.722656 164.226562 259.65625 165.027344 259.953125 168.921875 C 260.171875 171.824219 259.960938 172.792969 258.828125 174.085938 C 257.847656 175.203125 255.972656 175.761719 254.511719 175.378906 C 253.945312 175.226562 253.003906 174.832031 252.425781 174.496094 C 251.578125 174.003906 251.335938 173.949219 251.183594 174.214844 C 251.082031 174.394531 249.8125 176.324219 248.359375 178.503906 C 246.910156 180.679688 245.792969 182.527344 245.882812 182.609375 C 245.96875 182.691406 248.363281 183.53125 251.199219 184.484375 C 256.636719 186.304688 259.523438 186.867188 261.402344 186.476562 C 262.75 186.199219 262.699219 185.6875 261.257812 185.015625 C 257.691406 183.347656 257.945312 178.777344 261.824219 174.847656 C 264.578125 172.058594 268.089844 170.773438 272.984375 170.761719 C 276.335938 170.757812 276.753906 170.917969 276.070312 171.96875 C 274.476562 174.417969 274.324219 175.664062 274.902344 181.5 C 275.125 183.769531 275.140625 184.976562 274.960938 185.914062 C 273.859375 191.636719 269.058594 192.648438 265.953125 187.816406 L 265.078125 186.453125 L 264.003906 187.136719 C 263.410156 187.511719 262.378906 187.949219 261.710938 188.109375 C 260.089844 188.5 256.542969 188.269531 254.570312 187.644531 C 253.71875 187.375 252.976562 187.199219 252.921875 187.257812 C 252.792969 187.386719 253.050781 188.363281 253.332031 188.792969 C 253.511719 189.070312 253.804688 189.074219 255.117188 188.828125 C 257.125 188.449219 258.085938 188.742188 259.238281 190.082031 C 260.875 191.996094 260.84375 193.253906 259.082031 197.039062 C 258.046875 199.261719 258.066406 199.078125 258.449219 202.496094 C 258.515625 203.0625 258.460938 203.089844 257.4375 203.03125 C 255.949219 202.945312 253.277344 202.121094 251.597656 201.230469 C 249.953125 200.355469 248.195312 198.480469 247.214844 196.546875 C 245.4375 193.035156 247.015625 189.300781 250.277344 189.300781 C 251.53125 189.300781 251.699219 189.058594 251.171875 188.023438 C 250.542969 186.800781 249.402344 185.917969 247.84375 185.453125 C 245.503906 184.757812 242.265625 184.261719 240.042969 184.261719 C 236.472656 184.261719 231.679688 185.835938 228.273438 188.132812 C 226.992188 189 226.6875 189.367188 225.636719 191.351562 C 224.339844 193.792969 224.351562 194.015625 225.792969 194.25 C 226.605469 194.378906 226.621094 194.363281 227.066406 193.101562 C 227.640625 191.460938 228.015625 191.039062 229.488281 190.347656 C 231.121094 189.582031 232.332031 189.621094 234.089844 190.5 C 235.457031 191.183594 235.871094 191.5625 239.191406 195.214844 C 240.238281 196.367188 241.527344 197.085938 242.980469 197.328125 C 243.542969 197.421875 244.050781 197.582031 244.113281 197.683594 C 244.320312 198.015625 242.910156 199.957031 241.613281 201.125 C 238.152344 204.230469 233.886719 205.472656 229.894531 204.53125 C 228.039062 204.09375 227.089844 203.628906 226.046875 202.648438 C 224.417969 201.113281 224.175781 199.753906 225.1875 197.847656 C 225.53125 197.207031 225.71875 196.597656 225.609375 196.492188 C 225.234375 196.136719 223.71875 195.847656 223.210938 196.03125 C 222.691406 196.226562 216.171875 202.703125 216.171875 203.027344 C 216.171875 203.128906 217.089844 204.445312 218.214844 205.957031 C 222.800781 212.128906 224.628906 216.230469 226.246094 224 C 226.621094 225.800781 227.070312 227.367188 227.246094 227.476562 C 227.640625 227.726562 228.433594 227.738281 228.800781 227.503906 C 229.234375 227.226562 230.609375 224.363281 230.523438 223.921875 C 230.480469 223.699219 229.972656 223.242188 229.390625 222.902344 C 228.8125 222.566406 228.003906 221.875 227.59375 221.367188 C 226.925781 220.542969 226.847656 220.277344 226.847656 218.847656 C 226.847656 216.632812 227.34375 215.753906 230.117188 213.039062 C 232.472656 210.738281 232.964844 209.996094 232.964844 208.746094 C 232.964844 207.074219 234.285156 207.371094 236.167969 209.464844 C 239.492188 213.160156 240.382812 218.722656 238.304688 222.769531 C 237.113281 225.085938 235.300781 225.753906 233.167969 224.664062 C 232.550781 224.347656 232.523438 224.367188 232.148438 225.296875 C 231.460938 227.015625 231.066406 226.90625 238.421875 227.015625 C 244.769531 227.113281 245.105469 227.09375 245.613281 226.648438 C 246.140625 226.183594 246.800781 224.648438 246.570312 224.417969 C 246.503906 224.351562 245.714844 224.195312 244.816406 224.066406 C 242.957031 223.804688 242.257812 223.429688 241.597656 222.34375 C 240.089844 219.867188 241.304688 215.230469 244.222656 212.3125 C 245.644531 210.890625 248.59375 209.242188 249.878906 209.144531 C 250.597656 209.09375 250.597656 209.09375 250.632812 210.476562 C 250.679688 212.269531 251.050781 213.148438 252.972656 216.023438 C 254.5 218.304688 255.519531 220.730469 255.519531 222.082031 C 255.519531 224.617188 252.917969 226.089844 250.242188 225.070312 C 249.539062 224.804688 248.867188 224.644531 248.75 224.71875 C 248.515625 224.863281 248.179688 225.652344 247.9375 226.617188 L 247.789062 227.207031 L 251.894531 227.207031 C 258.15625 227.207031 262.84375 226.371094 263.394531 225.160156 C 263.746094 224.386719 263.765625 222.167969 263.421875 222.167969 C 263.28125 222.167969 262.640625 222.339844 261.996094 222.550781 C 260.445312 223.058594 259.441406 222.730469 258.195312 221.316406 C 256.972656 219.925781 256.601562 218.550781 256.648438 215.570312 C 256.710938 211.46875 258.066406 208.480469 261.257812 205.417969 C 262.988281 203.753906 264.648438 202.652344 265.242188 202.777344 C 265.539062 202.835938 265.632812 203.222656 265.675781 204.542969 C 265.738281 206.507812 266.261719 207.574219 268.308594 209.921875 C 271.191406 213.226562 271.921875 216.457031 270.359375 218.984375 C 269.761719 219.957031 268.214844 220.890625 266.851562 221.109375 C 265.664062 221.296875 265.527344 221.582031 265.640625 223.671875 L 265.714844 225.039062 L 267.574219 224.226562 C 271.472656 222.53125 275.125 219.8125 277.652344 216.722656 C 279.238281 214.78125 279.382812 214.007812 278.550781 211.785156 C 277.707031 209.53125 277.621094 209.484375 276.300781 210.625 C 274.714844 212 273.683594 212 272.199219 210.632812 C 270.25 208.835938 269.195312 206.316406 269.195312 203.46875 C 269.195312 200.628906 270.519531 197.125 272.195312 195.539062 C 273.027344 194.753906 273.101562 194.726562 273.359375 195.140625 C 273.507812 195.386719 273.917969 196.050781 274.269531 196.617188 C 274.722656 197.34375 275.667969 198.164062 277.496094 199.410156 C 280.359375 201.363281 281.398438 202.652344 281.609375 204.515625 C 281.773438 205.96875 281.023438 207.558594 279.792969 208.375 L 278.832031 209.011719 L 279.171875 209.832031 L 279.871094 211.523438 C 280.34375 212.667969 280.683594 212.386719 281.671875 210.007812 C 283.210938 206.316406 284.484375 198.113281 283.851562 195.996094 C 283.585938 195.113281 283.539062 195.082031 282.800781 195.246094 C 282.378906 195.339844 281.363281 195.417969 280.550781 195.417969 C 279.339844 195.417969 278.960938 195.316406 278.492188 194.875 C 277.027344 193.5 276.21875 190.554688 276.617188 188.058594 C 276.910156 186.207031 278.398438 183.132812 279.761719 181.558594 C 280.800781 180.359375 282.695312 179.085938 283.082031 179.328125 C 283.210938 179.40625 283.386719 179.816406 283.480469 180.246094 C 283.816406 181.804688 284.546875 182.75 287.339844 185.234375 C 290.582031 188.117188 291.582031 189.585938 291.609375 191.492188 C 291.640625 193.667969 290.132812 194.816406 287.25 194.816406 L 285.507812 194.816406 L 285.511719 195.957031 C 285.515625 196.582031 285.625 198.121094 285.757812 199.375 C 286.023438 201.910156 285.664062 205.4375 284.78125 208.878906 C 284.523438 209.898438 284.308594 210.753906 284.308594 210.785156 C 284.308594 210.917969 285.929688 210.460938 286.472656 210.179688 C 287.050781 209.878906 289.347656 208.441406 289.347656 208.382812 C 289.347656 208.367188 288.917969 207.890625 288.394531 207.328125 C 286.660156 205.472656 286.539062 203.582031 288.035156 201.832031 C 289.148438 200.53125 290.167969 199.929688 292.226562 199.359375 C 294.238281 198.800781 295.636719 197.9375 296.324219 196.824219 C 297.179688 195.441406 297.789062 195.878906 298.703125 198.535156 C 300.140625 202.714844 299.027344 207.585938 296.007812 210.300781 C 294.164062 211.957031 292.59375 212.027344 291.085938 210.519531 C 290.628906 210.0625 290.210938 209.691406 290.15625 209.691406 C 290.097656 209.691406 289.21875 210.164062 288.199219 210.742188 C 287.179688 211.320312 285.726562 211.988281 284.964844 212.226562 C 283.609375 212.652344 283.554688 212.703125 282.46875 214.597656 C 281.859375 215.660156 281.039062 216.996094 280.652344 217.566406 C 280.261719 218.136719 279.996094 218.65625 280.0625 218.722656 C 280.128906 218.789062 281.300781 218.949219 282.664062 219.074219 C 284.03125 219.203125 286.273438 219.464844 287.648438 219.660156 C 291.421875 220.1875 291.269531 220.222656 291.109375 218.871094 C 290.847656 216.636719 291.761719 214.789062 293.527344 213.988281 C 295.410156 213.132812 298.046875 213.625 301.050781 215.394531 C 303.34375 216.75 304.191406 216.972656 306.257812 216.777344 C 307.480469 216.664062 308.0625 216.699219 308.179688 216.890625 C 308.4375 217.300781 307.179688 220.535156 306.152344 222.109375 C 304.1875 225.132812 301.320312 227.074219 297.722656 227.828125 C 296.097656 228.171875 295.820312 228.167969 294.480469 227.808594 C 291.613281 227.035156 290.625 225.929688 290.859375 223.746094 C 290.929688 223.074219 291.058594 222.351562 291.140625 222.136719 C 291.269531 221.808594 290.960938 221.683594 289.230469 221.363281 C 286.289062 220.816406 280.988281 220.398438 279.449219 220.59375 C 278.230469 220.742188 277.929688 220.929688 275.132812 223.238281 C 273.480469 224.605469 272.0625 225.828125 271.980469 225.960938 C 271.902344 226.089844 272.726562 226.957031 273.8125 227.882812 C 276.648438 230.296875 277.324219 231.050781 280.84375 235.667969 L 283.996094 239.804688 L 285.082031 239.765625 C 285.683594 239.746094 286.40625 239.605469 286.695312 239.449219 C 287.207031 239.175781 287.195312 239.148438 286.125 238.152344 C 285.179688 237.273438 285.027344 237 285.03125 236.1875 C 285.035156 235.015625 286.148438 232.992188 287.261719 232.144531 C 289.207031 230.664062 292.484375 229.605469 295.144531 229.605469 C 297.613281 229.605469 301.824219 231.027344 301.824219 231.859375 C 301.824219 232.035156 301.394531 232.464844 300.867188 232.8125 C 299.730469 233.566406 298.644531 235.351562 297.976562 237.574219 C 297.359375 239.621094 296.265625 241.0625 294.675781 241.917969 C 292.292969 243.203125 290.480469 242.691406 288.988281 240.3125 C 288.773438 239.96875 288.59375 239.996094 287.308594 240.570312 C 286.515625 240.925781 285.816406 241.257812 285.75 241.3125 C 285.683594 241.367188 286.207031 241.945312 286.917969 242.597656 C 289.394531 244.882812 292.804688 246.089844 296.023438 245.828125 C 298.191406 245.652344 300.746094 244.785156 302.453125 243.652344 L 303.738281 242.800781 L 302.878906 241.601562 C 301.644531 239.882812 301.574219 238.90625 302.582031 237.410156 C 304.691406 234.269531 309.792969 233.53125 314.234375 235.730469 C 316.242188 236.722656 316.585938 237.1875 315.722656 237.738281 C 314.390625 238.589844 313.617188 239.683594 312.96875 241.65625 C 311.417969 246.351562 309.929688 248.082031 307.425781 248.082031 C 306.292969 248.082031 305.355469 247.117188 304.8125 245.390625 L 304.390625 244.050781 L 302.796875 245.074219 C 300.566406 246.503906 299.136719 247.101562 296.824219 247.582031 L 294.820312 247.996094 L 296.070312 249.117188 C 296.753906 249.734375 297.46875 250.238281 297.652344 250.238281 C 297.835938 250.238281 298.160156 249.804688 298.375 249.277344 C 298.585938 248.746094 299.0625 248.097656 299.429688 247.835938 C 301.191406 246.582031 302.886719 247.066406 305.265625 249.5 C 306.609375 250.875 307.089844 251.207031 308.074219 251.441406 C 308.726562 251.597656 309.261719 251.804688 309.261719 251.894531 C 309.261719 252.363281 307.761719 254.335938 306.824219 255.105469 C 304.460938 257.039062 301.691406 257.78125 299.351562 257.101562 C 297.050781 256.433594 296.257812 254.847656 297.148438 252.714844 C 297.347656 252.238281 297.484375 251.832031 297.449219 251.8125 C 297.414062 251.796875 296.628906 251.132812 295.707031 250.335938 C 293.058594 248.066406 292.78125 247.894531 290.617188 247.203125 C 289.492188 246.84375 287.53125 245.9375 286.261719 245.183594 C 284.988281 244.429688 283.917969 243.839844 283.882812 243.875 C 283.761719 243.984375 284.304688 246.171875 284.667969 247.03125 C 285.011719 247.855469 285.019531 247.859375 285.714844 247.496094 C 286.613281 247.03125 288.191406 246.78125 288.972656 246.976562 C 289.828125 247.191406 291.210938 248.46875 291.765625 249.558594 C 292.027344 250.070312 292.34375 251.320312 292.46875 252.34375 C 292.835938 255.257812 292.9375 255.566406 293.949219 256.78125 L 294.902344 257.929688 L 293.863281 258.378906 C 291.535156 259.390625 288.527344 259.195312 285.761719 257.851562 C 284.070312 257.03125 281.820312 254.632812 281.210938 252.996094 C 280.710938 251.664062 280.707031 251.601562 281.125 250.753906 C 281.390625 250.207031 281.886719 249.714844 282.449219 249.441406 C 282.945312 249.199219 283.347656 248.875 283.347656 248.722656 C 283.34375 248.566406 283.140625 247.792969 282.890625 247 C 282.644531 246.210938 282.3125 244.710938 282.152344 243.667969 C 281.886719 241.914062 281.777344 241.671875 280.625 240.3125 C 279.941406 239.503906 278.746094 237.9375 277.964844 236.828125 L 276.550781 234.816406 L 276.234375 235.871094 C 275.734375 237.542969 275.789062 237.667969 277.367188 238.511719 C 278.410156 239.066406 278.949219 239.53125 279.257812 240.144531 C 280.652344 242.902344 279.742188 245.0625 276.023438 247.820312 C 273.742188 249.507812 273.28125 250.058594 272.644531 251.859375 C 272.402344 252.550781 272.144531 253.117188 272.078125 253.117188 C 271.625 253.113281 270.257812 251.976562 269.246094 250.757812 C 267.085938 248.164062 266.1875 245.625 266.363281 242.613281 C 266.5 240.242188 267.402344 238.148438 268.859375 236.804688 C 270.082031 235.679688 271.0625 235.558594 272.757812 236.328125 C 273.332031 236.589844 273.886719 236.75 273.988281 236.6875 C 274.089844 236.625 274.296875 236.085938 274.445312 235.492188 C 274.785156 234.148438 274.503906 232.769531 273.679688 231.6875 C 272.960938 230.746094 270.679688 229.480469 268.378906 228.75 L 266.710938 228.222656 L 264.773438 228.894531 C 261.335938 230.082031 255.355469 230.992188 252.515625 230.753906 C 251.792969 230.695312 251.199219 230.722656 251.199219 230.820312 C 251.199219 231.132812 252.753906 233.285156 253.15625 233.53125 C 253.464844 233.71875 253.800781 233.609375 254.597656 233.070312 C 255.492188 232.464844 255.863281 232.367188 257.238281 232.367188 C 258.664062 232.367188 258.933594 232.445312 259.753906 233.109375 C 260.261719 233.519531 261 234.488281 261.390625 235.269531 C 262.082031 236.632812 262.109375 236.828125 262.199219 240.523438 C 262.292969 244.589844 262.507812 245.464844 263.648438 246.5 C 264.949219 247.671875 263.914062 248.179688 260.195312 248.1875 C 256.738281 248.195312 254.699219 247.660156 252.433594 246.148438 C 249.828125 244.40625 247.9375 241.535156 247.691406 238.945312 C 247.527344 237.210938 248.078125 236.199219 249.714844 235.246094 C 250.390625 234.847656 250.945312 234.402344 250.953125 234.253906 C 250.957031 234.101562 250.609375 233.453125 250.179688 232.8125 C 249.625 231.984375 249.023438 231.457031 248.097656 230.984375 C 246.859375 230.359375 246.625 230.328125 243.414062 230.328125 C 239.882812 230.328125 236.320312 230.664062 235.566406 231.066406 C 234.886719 231.429688 235.015625 231.847656 236.492188 234.066406 L 237.863281 236.125 L 238.863281 235.972656 C 241.136719 235.632812 243.585938 237.015625 244.375 239.085938 C 245 240.71875 244.757812 242.941406 243.6875 245.453125 C 242.253906 248.8125 242.152344 250.117188 243.152344 252.457031 C 243.449219 253.148438 242.703125 253.207031 240.828125 252.640625 C 236.746094 251.410156 233.785156 248.976562 232.035156 245.421875 C 230.800781 242.914062 230.4375 241.105469 230.804688 239.324219 C 231.226562 237.304688 232.203125 236.351562 234.238281 235.984375 C 235.035156 235.839844 235.128906 235.753906 234.992188 235.292969 C 234.699219 234.316406 233.984375 233.386719 232.84375 232.484375 C 231.734375 231.609375 231.6875 231.597656 230.71875 231.890625 C 227.972656 232.71875 226.808594 233.527344 226.621094 234.742188 C 225.507812 242.023438 223.546875 247.480469 220.191406 252.640625 C 219.542969 253.632812 220.074219 254.039062 222.410156 254.332031 C 224.976562 254.65625 228.578125 255.871094 230.902344 257.199219 C 233.6875 258.792969 236.078125 260.832031 240.011719 264.972656 C 241.976562 267.039062 243.757812 268.824219 243.972656 268.9375 C 244.496094 269.214844 247.078125 267.945312 248.460938 266.726562 C 249.042969 266.214844 249.519531 265.714844 249.519531 265.621094 C 249.519531 265.527344 249.027344 265.101562 248.425781 264.675781 C 245.777344 262.808594 246.214844 259.566406 249.554688 256.265625 C 251.222656 254.617188 253 253.519531 255.316406 252.707031 C 258.617188 251.554688 263.820312 251.707031 266.386719 253.035156 L 267.078125 253.394531 L 265.609375 254.921875 C 263.855469 256.75 263.554688 257.410156 263.074219 260.484375 C 262.226562 265.878906 259.640625 268.691406 255.660156 268.535156 C 254.53125 268.492188 254.207031 268.335938 252.246094 266.90625 C 251.761719 266.554688 251.648438 266.597656 250.171875 267.714844 C 249.3125 268.367188 248.003906 269.261719 247.265625 269.703125 C 246.527344 270.144531 245.921875 270.667969 245.917969 270.871094 C 245.917969 271.402344 250.339844 275.609375 253.125 277.71875 C 255.828125 279.761719 257.164062 280.457031 258.398438 280.460938 C 259.328125 280.464844 261.757812 279.4375 261.757812 279.039062 C 261.757812 278.898438 261.410156 278.171875 260.988281 277.425781 C 260.347656 276.289062 260.222656 275.808594 260.210938 274.488281 C 260.203125 273.179688 260.320312 272.695312 260.914062 271.621094 C 261.835938 269.949219 264.101562 268.332031 267.183594 267.136719 C 269.765625 266.136719 271.148438 264.992188 272.019531 263.136719 C 272.3125 262.507812 272.65625 261.996094 272.777344 261.996094 C 273.480469 261.996094 275.183594 265.617188 275.679688 268.167969 C 276.113281 270.394531 275.875 274.949219 275.230469 276.734375 C 272.898438 283.195312 267.359375 286.019531 265.304688 281.792969 C 265.015625 281.195312 264.644531 280.710938 264.476562 280.710938 C 264.070312 280.710938 261.714844 281.644531 261.34375 281.953125 C 260.925781 282.300781 261.339844 282.980469 262.167969 283.304688 C 265.585938 284.640625 270.597656 285.617188 273.03125 285.421875 C 276.9375 285.105469 282.644531 283.566406 284.265625 282.394531 C 285.25 281.679688 285.269531 281.640625 285.269531 280.230469 C 285.269531 279.4375 285.21875 278.789062 285.15625 278.789062 C 285.089844 278.789062 284.6875 279.007812 284.253906 279.269531 C 282.648438 280.25 281.164062 279.722656 280.121094 277.804688 C 278.335938 274.527344 279.46875 269.242188 282.632812 266.070312 C 283.988281 264.714844 285.898438 263.4375 286.566406 263.4375 C 286.953125 263.4375 287.082031 263.820312 287.265625 265.5 C 287.40625 266.796875 287.933594 267.863281 289.144531 269.320312 C 291.144531 271.726562 291.660156 273.710938 290.878906 276.003906 C 290.464844 277.21875 289.40625 278.128906 288.027344 278.449219 C 287.066406 278.671875 286.707031 278.984375 286.710938 279.601562 C 286.71875 280.710938 287.066406 280.816406 288.179688 280.050781 C 289.910156 278.859375 293.304688 275.785156 296.386719 272.628906 C 297.980469 270.992188 300.003906 269.164062 300.882812 268.566406 L 302.472656 267.476562 L 301.878906 265.722656 C 300.859375 262.734375 301.515625 261.269531 304.558594 259.71875 C 306.402344 258.777344 306.496094 258.757812 308.871094 258.777344 C 310.851562 258.796875 311.597656 258.910156 312.917969 259.40625 C 315.042969 260.207031 316.898438 261.34375 318.640625 262.917969 C 320.210938 264.332031 320.433594 265.023438 319.398438 265.246094 C 317.148438 265.730469 315.914062 266.84375 313.46875 270.582031 C 311.734375 273.238281 310.601562 274.46875 309.074219 275.363281 C 306.992188 276.585938 304.761719 275.886719 303.65625 273.664062 C 303.195312 272.734375 303.039062 270.5 303.367188 269.476562 C 303.542969 268.929688 303.535156 268.925781 302.84375 269.28125 C 301.339844 270.0625 299.339844 271.96875 297.578125 274.308594 C 296.566406 275.652344 294.328125 278.160156 292.605469 279.878906 C 289.574219 282.898438 289.351562 283.066406 286.109375 284.777344 C 284.261719 285.75 282.714844 286.574219 282.667969 286.609375 C 282.253906 286.929688 286.976562 291.140625 288.054688 291.414062 C 288.332031 291.484375 288.96875 291.371094 289.464844 291.164062 L 290.371094 290.785156 L 289.257812 289.75 C 288.277344 288.832031 288.148438 288.597656 288.148438 287.699219 C 288.148438 285.808594 289.464844 284.289062 292.164062 283.066406 C 295.511719 281.546875 298.703125 281.328125 302.113281 282.382812 C 303.886719 282.933594 304.3125 283.304688 303.605469 283.695312 C 303.351562 283.835938 302.75 284.34375 302.273438 284.828125 C 301.621094 285.488281 301.363281 285.988281 301.234375 286.847656 C 300.898438 289.089844 300.191406 290.871094 299.273438 291.820312 C 297.445312 293.695312 295.527344 293.878906 293.4375 292.378906 C 292.769531 291.898438 292.140625 291.507812 292.035156 291.507812 C 291.933594 291.507812 291.4375 291.714844 290.9375 291.972656 L 290.023438 292.4375 L 291.183594 293.023438 C 293.902344 294.402344 297.503906 294.785156 300.511719 294.023438 C 302.210938 293.59375 305.503906 292 306.464844 291.140625 L 307.144531 290.53125 L 306.296875 289.59375 C 305.046875 288.210938 304.628906 287.269531 304.773438 286.179688 C 304.953125 284.855469 305.492188 284.164062 306.910156 283.445312 C 309.722656 282.019531 312.171875 281.546875 314.84375 281.921875 C 316.574219 282.164062 319.816406 283.304688 319.816406 283.675781 C 319.816406 283.796875 319.394531 284.355469 318.875 284.917969 C 318.03125 285.835938 317.179688 287.777344 317.179688 288.789062 C 317.179688 288.960938 316.851562 290.117188 316.457031 291.359375 C 315.855469 293.226562 315.570312 293.761719 314.789062 294.46875 C 314.273438 294.933594 313.472656 295.390625 313.007812 295.476562 C 311.195312 295.816406 309.359375 294.558594 308.617188 292.472656 L 308.203125 291.308594 L 306.914062 292.484375 C 305.308594 293.953125 303.175781 295.15625 300.9375 295.851562 L 299.214844 296.390625 L 299.980469 297.457031 C 300.867188 298.699219 302.707031 300.382812 303.171875 300.382812 C 303.347656 300.382812 303.558594 300.125 303.636719 299.808594 C 303.851562 298.964844 305 297.976562 306.054688 297.730469 C 307.691406 297.351562 309.25 297.984375 310.617188 299.578125 C 312.875 302.207031 314.007812 303.226562 315.003906 303.527344 C 315.539062 303.6875 315.980469 303.964844 315.980469 304.144531 C 315.980469 304.738281 314.085938 306.539062 312.679688 307.285156 C 310.691406 308.34375 308.695312 308.863281 307.238281 308.710938 C 305.628906 308.542969 303.566406 307.75 302.566406 306.917969 C 301.894531 306.351562 301.742188 306.042969 301.644531 305.011719 C 301.546875 304.015625 301.625 303.640625 302.035156 303.0625 C 302.695312 302.132812 302.679688 301.964844 301.839844 301.300781 C 301.453125 300.996094 300.332031 299.820312 299.34375 298.691406 L 297.550781 296.636719 L 295.183594 296.359375 C 289.957031 295.746094 285.589844 293.664062 280.921875 289.546875 L 279.050781 287.898438 L 276.382812 288.246094 C 274.914062 288.441406 273.53125 288.535156 273.3125 288.457031 C 273.09375 288.378906 273.789062 289.136719 274.859375 290.140625 C 278.316406 293.382812 280.304688 296.40625 281.683594 300.503906 C 282.230469 302.132812 282.46875 302.519531 283.257812 303.070312 C 284.738281 304.097656 285.039062 304.046875 285.382812 302.710938 C 286.136719 299.789062 289.234375 298.855469 292.644531 300.523438 C 294.757812 301.554688 296.730469 304.507812 297.503906 307.792969 C 297.84375 309.246094 297.957031 312.277344 297.6875 312.925781 C 297.523438 313.332031 297.460938 313.328125 296.550781 312.863281 C 295.0625 312.101562 293.75 312.015625 292.328125 312.578125 C 288.511719 314.089844 285.523438 313.566406 284.304688 311.167969 C 283.703125 309.988281 283.699219 308.421875 284.292969 307.25 C 284.796875 306.265625 284.742188 305.773438 284.113281 305.59375 C 283.832031 305.507812 283.558594 305.414062 283.289062 305.304688 C 282.914062 305.148438 282.871094 305.296875 282.871094 306.644531 C 282.871094 308.71875 283.308594 314.570312 283.605469 316.414062 C 283.929688 318.445312 284.667969 320.351562 285.429688 321.113281 C 285.773438 321.457031 286.132812 321.738281 286.234375 321.738281 C 286.332031 321.738281 286.488281 321.222656 286.582031 320.597656 C 286.820312 319.023438 287.316406 317.917969 288.210938 316.996094 C 289.132812 316.042969 290.132812 315.742188 292.398438 315.742188 C 296.554688 315.738281 301.003906 318.441406 303.765625 322.648438 C 304.941406 324.4375 306.269531 327.527344 306.417969 328.816406 C 306.511719 329.621094 306.539062 329.617188 303.9375 329.285156 C 301.980469 329.035156 300.746094 329.429688 297.15625 331.441406 C 293.128906 333.699219 291.972656 334.085938 289.226562 334.089844 C 287.347656 334.09375 286.96875 334.019531 286.28125 333.53125 C 284.109375 331.984375 283.945312 328.640625 285.902344 325.796875 C 286.6875 324.660156 286.726562 324.523438 286.34375 324.3125 C 285.519531 323.847656 284.078125 322.402344 283.347656 321.300781 C 282.347656 319.789062 281.695312 317.523438 281.476562 314.777344 L 281.292969 312.5 L 280.402344 313.417969 C 279.394531 314.453125 279.316406 314.816406 279.960938 315.429688 C 281.492188 316.882812 281.84375 318.957031 280.871094 320.796875 C 279.859375 322.710938 277.632812 323.507812 273.957031 323.265625 C 271.171875 323.082031 270.777344 323.164062 269.414062 324.25 C 268.832031 324.710938 268.269531 325.09375 268.167969 325.09375 C 268.066406 325.09375 267.867188 324.800781 267.730469 324.4375 C 266.882812 322.207031 266.753906 317.636719 267.476562 315.320312 C 268.734375 311.277344 272.097656 308.441406 275.09375 308.890625 C 276.492188 309.101562 277.953125 310.4375 278.195312 311.722656 C 278.289062 312.214844 278.453125 312.621094 278.558594 312.621094 C 278.921875 312.621094 280.453125 310.632812 280.726562 309.808594 C 281.214844 308.332031 280.066406 302.441406 278.683594 299.3125 C 277.300781 296.183594 274.15625 292.304688 271.433594 290.363281 L 270.6875 289.832031 L 270.453125 291.691406 C 270.183594 293.824219 270.316406 294.144531 271.488281 294.144531 C 274.863281 294.144531 277.0625 298.242188 275.230469 301.117188 C 274.484375 302.292969 273.058594 303.65625 271.660156 304.539062 C 271.160156 304.855469 270.351562 305.554688 269.867188 306.09375 C 269.050781 306.992188 268.84375 307.539062 268.660156 309.261719 C 268.554688 310.21875 267.753906 310.136719 266.34375 309.019531 C 263.757812 306.976562 261.933594 304.699219 260.992188 302.339844 C 260.546875 301.226562 260.449219 300.511719 260.441406 298.34375 C 260.4375 295.921875 260.492188 295.589844 261.121094 294.3125 C 261.941406 292.640625 263.085938 291.789062 264.777344 291.597656 C 265.75 291.488281 266.15625 291.574219 267.125 292.097656 C 267.769531 292.441406 268.351562 292.667969 268.425781 292.59375 C 268.75 292.269531 268.742188 289.878906 268.414062 289.097656 C 268.09375 288.324219 267.929688 288.222656 266.289062 287.808594 C 263.753906 287.167969 260.441406 286.0625 259.277344 285.464844 C 258.726562 285.183594 257.105469 284.4375 255.675781 283.804688 C 254.246094 283.171875 252.714844 282.378906 252.273438 282.042969 C 251.832031 281.707031 251.359375 281.429688 251.222656 281.429688 C 250.695312 281.429688 250.214844 282.878906 250.289062 284.246094 L 250.359375 285.601562 L 251.722656 286.007812 C 254.378906 286.792969 255.722656 288.117188 256.269531 290.488281 C 256.753906 292.578125 255.933594 295.015625 253.597656 298.433594 C 252.207031 300.476562 251.835938 301.726562 251.972656 303.90625 L 252.089844 305.703125 L 251.226562 305.546875 C 249.847656 305.296875 247.878906 304.007812 245.902344 302.054688 C 244.429688 300.597656 243.851562 299.800781 242.953125 297.972656 C 241.222656 294.472656 240.761719 291.550781 241.496094 288.738281 C 241.972656 286.902344 242.507812 286.007812 243.535156 285.308594 C 244.222656 284.839844 244.582031 284.765625 245.679688 284.855469 C 246.40625 284.914062 247.171875 285.035156 247.378906 285.125 C 248.230469 285.492188 248.644531 281.558594 247.957031 279.632812 C 247.769531 279.109375 247.316406 278.460938 246.949219 278.195312 C 245.941406 277.464844 242.65625 274.546875 238.039062 270.273438 C 235.761719 268.164062 233.765625 266.433594 233.609375 266.433594 C 232.855469 266.433594 232.472656 271.140625 233.191406 271.585938 C 233.359375 271.6875 234.167969 271.71875 234.984375 271.652344 C 237.199219 271.476562 238.707031 272.414062 239.710938 274.59375 C 240.675781 276.6875 240.132812 279.175781 237.832031 283.203125 C 236.707031 285.171875 236.453125 285.828125 236.367188 286.972656 C 236.3125 287.738281 236.390625 288.710938 236.539062 289.140625 C 236.710938 289.628906 236.726562 290 236.582031 290.144531 C 236.214844 290.511719 232.511719 289.230469 230.914062 288.191406 C 229.363281 287.175781 226.414062 284.226562 225.578125 282.851562 C 224.710938 281.421875 224.261719 279.179688 224.378906 276.878906 C 224.496094 274.519531 225.003906 273.300781 226.363281 272.109375 C 227.160156 271.40625 227.351562 271.351562 228.980469 271.351562 L 230.742188 271.351562 L 230.898438 270.214844 C 230.988281 269.585938 231.125 268.085938 231.207031 266.875 L 231.355469 264.679688 L 230.179688 263.941406 C 228.59375 262.941406 225.882812 261.828125 223.648438 261.253906 C 221.488281 260.699219 217.429688 260.417969 215.144531 260.660156 C 213.199219 260.871094 213.21875 260.78125 214.355469 264.195312 C 215.34375 267.164062 215.828125 269.726562 216.15625 273.753906 C 216.445312 277.304688 216.820312 278.851562 218.132812 281.910156 C 219.785156 285.769531 219.890625 286.257812 219.789062 289.46875 C 219.738281 291.050781 219.6875 293.910156 219.671875 295.824219 C 219.652344 299.121094 219.683594 299.375 220.292969 300.675781 C 220.699219 301.546875 221.558594 302.667969 222.65625 303.765625 C 224.800781 305.910156 226.273438 307.894531 226.96875 309.574219 C 227.464844 310.765625 227.597656 310.898438 228.734375 311.296875 C 232.328125 312.550781 235.453125 314.851562 236.917969 317.320312 C 238.378906 319.785156 238.960938 323.765625 238.496094 328.089844 C 238.089844 331.839844 237.496094 331.574219 246.335938 331.574219 C 257.554688 331.574219 259.238281 331.960938 271.988281 337.46875 C 276.457031 339.398438 281.179688 341.402344 282.484375 341.925781 L 284.859375 342.875 L 303.359375 342.792969 C 323.824219 342.703125 322.582031 342.796875 325.9375 341.113281 C 327.910156 340.121094 330.78125 337.191406 331.769531 335.160156 C 333.371094 331.871094 333.253906 337.410156 333.253906 265.355469 C 333.253906 193.1875 333.375 198.867188 331.753906 195.570312 C 330.667969 193.367188 329.324219 192.015625 323.328125 187.085938 C 318.390625 183.023438 313.464844 178.96875 308.542969 174.925781 C 303.328125 170.640625 296.042969 164.648438 292.347656 161.609375 C 288.652344 158.574219 283.847656 154.621094 281.667969 152.832031 C 279.492188 151.039062 268.859375 142.292969 258.039062 133.394531 C 247.21875 124.496094 228.917969 109.441406 217.371094 99.941406 C 205.824219 90.445312 195.765625 82.257812 195.015625 81.753906 C 192.367188 79.972656 187.921875 79.042969 185 79.660156 M 144.855469 165.953125 C 144.207031 166.675781 142.425781 167.472656 141.109375 167.628906 C 139.925781 167.765625 139.917969 167.773438 140.183594 168.398438 C 140.640625 169.46875 142.523438 172.34375 143.304688 173.164062 C 144.390625 174.304688 144.671875 174.191406 144.671875 172.625 C 144.671875 171.898438 144.84375 170.328125 145.046875 169.136719 C 145.253906 167.941406 145.390625 166.632812 145.347656 166.230469 C 145.273438 165.507812 145.261719 165.5 144.855469 165.953125 M 190.914062 184.90625 C 190.523438 185.007812 190.53125 185.070312 191.007812 185.742188 C 191.683594 186.691406 191.820312 188.175781 191.363281 189.648438 C 191.160156 190.300781 191.019531 190.855469 191.046875 190.878906 C 191.15625 190.96875 197.640625 192.179688 198.019531 192.179688 C 198.8125 192.179688 198.257812 189.339844 197.015625 187.042969 C 196.511719 186.105469 196.132812 185.75 195.179688 185.304688 C 194.035156 184.773438 192.121094 184.59375 190.914062 184.90625 M 183.660156 198.675781 C 175.167969 199.847656 167.742188 203.992188 162.59375 210.429688 C 154.628906 220.382812 153.324219 233.816406 159.195312 245.441406 C 161.136719 249.289062 164.238281 253.105469 167.179688 255.277344 L 168.695312 256.394531 L 172.941406 255.226562 C 175.273438 254.582031 177.453125 253.863281 177.78125 253.625 C 179.226562 252.585938 179.941406 250.625 179.941406 247.703125 C 179.941406 246.414062 179.832031 245.984375 179.289062 245.160156 L 178.632812 244.171875 L 178.199219 245.167969 C 177.726562 246.253906 176.796875 247.015625 176.222656 246.792969 C 175.90625 246.671875 175.878906 246.144531 176.015625 242.988281 C 176.164062 239.496094 176.140625 239.199219 175.507812 236.714844 C 174.902344 234.34375 174.867188 233.996094 175.136719 232.878906 C 175.386719 231.824219 175.371094 231.421875 175.007812 230.085938 C 174.757812 229.160156 174.582031 227.648438 174.578125 226.367188 C 174.570312 224.507812 174.660156 224.003906 175.234375 222.742188 C 175.960938 221.144531 177.28125 219.699219 179.125 218.496094 L 180.300781 217.726562 L 180.460938 215.957031 C 180.769531 212.507812 182.570312 210.316406 185.613281 209.6875 C 188.019531 209.1875 190.988281 209.886719 192.460938 211.292969 C 193.429688 212.21875 194.15625 214.132812 194.285156 216.089844 L 194.398438 217.804688 L 195.375 218.246094 C 196.808594 218.890625 198.613281 220.824219 199.449219 222.605469 C 200.449219 224.746094 200.574219 226.863281 199.863281 229.695312 C 199.417969 231.480469 199.378906 231.917969 199.632812 232.523438 C 200.027344 233.480469 199.980469 234.28125 199.40625 236.371094 C 198.6875 238.992188 198.578125 240.542969 198.902344 243.488281 C 199.136719 245.621094 199.136719 246.230469 198.898438 246.519531 C 198.410156 247.105469 197.761719 246.9375 197.046875 246.042969 C 196.679688 245.578125 196.207031 245.203125 196 245.203125 C 195.792969 245.203125 195.378906 245.640625 195.078125 246.179688 C 194.605469 247.015625 194.550781 247.351562 194.695312 248.515625 C 195.027344 251.160156 196.101562 253.257812 197.492188 253.976562 C 198.484375 254.488281 204.75 256.238281 205.597656 256.238281 C 206.457031 256.238281 208.203125 254.910156 210.613281 252.417969 C 214.554688 248.34375 217.433594 242.722656 218.726562 236.5625 C 219.3125 233.785156 219.320312 227.417969 218.746094 224.621094 C 216.417969 213.308594 208.300781 203.878906 197.765625 200.242188 C 196.414062 199.777344 194.417969 199.226562 193.324219 199.019531 C 190.84375 198.542969 185.878906 198.367188 183.660156 198.675781 M 168.710938 283.023438 C 168.453125 283.53125 167.796875 285.742188 167.257812 287.929688 C 165.410156 295.410156 163.496094 300.046875 161.1875 302.640625 C 160.5625 303.339844 159.257812 304.523438 158.285156 305.265625 C 157.28125 306.035156 156.285156 307.035156 155.980469 307.582031 C 155.683594 308.109375 155.480469 308.542969 155.53125 308.542969 C 155.578125 308.542969 158.945312 307.40625 163.011719 306.023438 C 167.074219 304.636719 170.433594 303.503906 170.476562 303.503906 C 170.648438 303.503906 172 299.671875 172.296875 298.34375 C 172.496094 297.445312 172.609375 295.460938 172.601562 293.066406 C 172.585938 289.949219 172.488281 288.882812 172.078125 287.390625 C 171.484375 285.214844 170.625 283.445312 169.789062 282.664062 L 169.179688 282.097656 Z M 168.710938 283.023438 " fill-opacity="1" fill-rule="evenodd"/></svg>